<svg xmlns="http://www.w3.org/2000/svg" viewBox="0 0 73.527 74.56">
  <path id="Tracé_1336" data-name="Tracé 1336" d="M255.316-59.716c-16.588-.563-31.9-5.453-44.47-20.217-1.711-2.009-2.672-5.145-4.016-7.726q-.167-.319-.349-.625a1.026,1.026,0,0,0-1.934.244c-1.122,3.074,3.41,10.8,6.115,14.116,8.034,9.856,17.988,14.568,28.607,16.876,4.677,1.017,8.86,1.127,13.488,1.624a6.923,6.923,0,0,0,3.568-.5,5.769,5.769,0,0,0,1.762-1.154c.425-.428.321.495-.042,1.024-1.212,1.77-2.627,3.294-3.834,5.07a30.915,30.915,0,0,0-2.81,5.012,2.584,2.584,0,0,0,.015,1.386c.141.74.669,1.236,1.238,1.162a1.412,1.412,0,0,0,1.014-.446c3.116-4.167,6.159-8.435,9.168-12.742,1.447-2.072,1.234-3.728-.706-5.273-4.235-3.372-8.337-7.038-12.571-10.412a1.692,1.692,0,0,0-1.276-.221,1.685,1.685,0,0,0-1.238,1.8,4.2,4.2,0,0,0,.383,2.321c1.633,2.02,3.9,2.917,5.7,4.7.687.681,2.375,2.148,3.155,3.006C256.512-60.44,255.609-59.705,255.316-59.716Z" transform="translate(-169.02 -92.412) rotate(48)" fill="#2c525a"/>
</svg>
