<svg xmlns="http://www.w3.org/2000/svg" viewBox="0 0 21.742 16.619">
  <path id="Tick_1_" data-name="Tick (1)" d="M18.065,54.912a1,1,0,0,1-1.042.108,5,5,0,0,1-1.015-.6c-.622-.528-2.435-2.219-2.72-2.5-.582-.555-2.26-2.1-2.5-2.327-.406-.379-.758-.812-1.15-1.2a.912.912,0,0,1,.041-1.218,1.159,1.159,0,0,1,1.488-.162,8.317,8.317,0,0,1,.839.852c.839.8,1.691,1.583,2.544,2.368.474.446.92.92,1.407,1.353a3.618,3.618,0,0,0,1.015.758c.176.068.5-.216.744-.379a18.377,18.377,0,0,0,3.112-3.207c.7-.8,1.3-1.691,1.989-2.5.46-.555,3.464-3.951,4.641-5.331.149-.176.392-.446.622-.731a4.642,4.642,0,0,0,.528-.812,1.526,1.526,0,0,1,.555-.582A1.471,1.471,0,0,1,30,38.5a1.068,1.068,0,0,1,.325.027,1.253,1.253,0,0,1,.839,1.177,1.106,1.106,0,0,1-.189.717c-.46.636-.961,1.245-1.448,1.854-.284.365-.568.731-.879,1.082-.839.947-3.423,3.8-3.87,4.3-.771.879-1.556,1.772-2.327,2.665-.433.5-.812,1.042-1.272,1.5-.731.758-1.515,1.461-2.273,2.192-.257.257-.5.541-.771.785C18.132,54.858,18.092,54.885,18.065,54.912Z" transform="translate(-9.422 -38.5)" fill="#56bdb5"/>
</svg>
