<svg xmlns="http://www.w3.org/2000/svg" width="46.304" height="49.821" viewBox="0 0 46.304 49.821">
  <g id="ROND_next_droite" data-name="ROND next droite" transform="translate(46.304) rotate(90)">
    <path id="Tracé_294" data-name="Tracé 294" d="M10.037,5.11C-2.5,12.885-1.785,32.623,9.155,41.034a25.617,25.617,0,0,0,21.53,4.86C60.14,40.436,49.384,17.465,45.3,11.016S27.927-6.067,10.037,5.11Z" transform="translate(-0.791 -0.228)" fill="#2c525a"/>
    <path id="Picto_Down" data-name="Picto Down" d="M15.2,8.68c.5.6.827,1.308,1.324,1.869,1.1,1.29,2.261,2.523,3.42,3.738s2.188,2.3,3.328,3.4a1.113,1.113,0,0,1,.147.15,2.477,2.477,0,0,1-.11,3.5c-1.25,1.159-2.464,2.355-3.677,3.533s-2.445,2.392-3.677,3.589c-.423.411-2.666,3.551-4.615,2.841a1.433,1.433,0,0,1-.276-.187,1.323,1.323,0,0,1-.184-1.869l3.677-3.626c1.03-1.009,2.041-2.056,3.052-3.065A32.857,32.857,0,0,0,20,20.119c.257-.3.864-.692.129-1.383-1.434-1.514-2.979-2.9-4.413-4.411s-2.868-3.29-4.229-4.916a1.894,1.894,0,0,1-.276-1.72,2.185,2.185,0,0,1,.809-.785,1.4,1.4,0,0,1,1.839.224Z" transform="translate(7.414 5.36)" fill="#fff"/>
  </g>
</svg>
