<svg id="Groupe_74" data-name="Groupe 74" xmlns="http://www.w3.org/2000/svg" xmlns:xlink="http://www.w3.org/1999/xlink" viewBox="0 0 71.132 76.583">
  <defs>
    <clipPath id="clip-path">
      <path id="Tracé_44" data-name="Tracé 44" d="M0,37.395H71.132V-39.188H0Z" transform="translate(0 39.188)" fill="none"/>
    </clipPath>
    <clipPath id="clip-path-2">
      <rect id="Rectangle_25" data-name="Rectangle 25" fill="none"/>
    </clipPath>
  </defs>
  <g id="Groupe_73" data-name="Groupe 73" transform="translate(0 0)" clip-path="url(#clip-path)">
    <g id="Groupe_70" data-name="Groupe 70" transform="translate(-24.061 -32.676)" opacity="0.8">
      <g id="Groupe_69" data-name="Groupe 69">
        <g id="Groupe_68" data-name="Groupe 68" clip-path="url(#clip-path-2)">
          <g id="Groupe_67" data-name="Groupe 67" transform="translate(24.061 32.676)">
            <path id="Tracé_41" data-name="Tracé 41" d="M31.828,10.255S44.776,78.97,10.258,63.592-44.834,39.049-34.048,12.379s56.842-33.922,65.876-2.124" transform="translate(36.926 10.747)" fill="#eef4eb"/>
          </g>
        </g>
      </g>
    </g>
    <g id="Groupe_71" data-name="Groupe 71" transform="translate(11.328 4.176)">
      <path id="Tracé_42" data-name="Tracé 42" d="M9.171,19.4c.356-1.9-.259-3.68-2.2-5.292C5.319,12.728,4.2,10.639,2.85,8.858a7.6,7.6,0,0,0-.875-1.2C-.308,5.7-2.524,3.635-4.94,1.874A13.673,13.673,0,0,1-9.865-13.672a4.822,4.822,0,0,1,2.666-2.5c1.469-.539,3.156-.4,4.735-.651a1.911,1.911,0,0,0,1.326-.747C.05-20.1.537-20.5,3.17-20.275c6.018.518,12.028,1.124,18.048,1.618a39.174,39.174,0,0,0,5.766.07c2.975-.2,3.588.279,3.683,3.348.048,1.559,1.208,2.181,2.486,1.165,1.434-1.141,2.86-1.411,4.333-.365a4.209,4.209,0,0,1,1.607,2,18.519,18.519,0,0,1,.916,5.106c0,3.641-2.07,6.213-4.579,8.429C33.034,3.211,30.6,5.278,28.208,7.4a3.719,3.719,0,0,0-.642,1.108c-1.648,3.226-3.564,6.105-7.129,7.356-1.02.36-2.244.922-2.009,2.7s.069,3.445,2.4,4.01c3.517.852,4.957,3.822,5.543,7.238.419,2.451.527,4.958.851,7.43.058.444.568.8.741,1.251A23.369,23.369,0,0,1,29.6,43.208a2.713,2.713,0,0,1-2.841,3.107c-4.644.08-9.291.047-13.926.3-2.329.125-4.623.834-6.949,1.149a21.9,21.9,0,0,1-3.972.094C.757,47.8-.388,47.64-.766,46.11-1.3,43.956-1.019,41.86.37,41.117c1.51-.807,1.512-1.778,1.37-3.352a93.146,93.146,0,0,1-.32-10.6,4.959,4.959,0,0,1,5.2-4.651c2.579.2,2.579.2,2.555-3.119M6.745-16.56l.011-.336c-1.262-.092-2.523-.227-3.785-.266-1.432-.045-1.909.831-1.773,2.214.257,2.621.443,5.249.776,7.858C2.63-1.945,3.394,3.177,6.161,7.674c2.359,3.836,5.461,6.443,10.014,6.453,4.361.008,6.994-2.478,8.934-6.47,3.076-6.33,3.843-13.005,3.575-19.931-.13-3.316-.313-3.453-3.508-3.574q-9.217-.349-18.43-.711m12.6,55.377c6.251-.379,5.78.332,4.761-6.64-.339-2.316-1.015-4.684-3.309-6.031-2.355-1.384-4.923-1.259-7.427-1.29-2.393-.031-4.789.387-7.185.582-1.512.123-2.568.686-2.456,2.531.16,2.646.24,5.3.5,7.934A2.607,2.607,0,0,0,7.058,38.61c2.823.039,11.023.285,12.283.207M-8.288-12.146C-8.508-7.358-4.356-.522-.928.717.079,1.083.23.41.105-.412c-.3-2-.592-4.006-.959-5.994A53.6,53.6,0,0,0-2.1-12.122c-.43-1.431-2.759-2.7-4.225-2.114-.946.379-1.57,1.645-1.963,2.091M24.877,43.908c.6-.084,1.138-.664,1.7-1.02-.454-.446-.845-1.112-1.382-1.284a7.543,7.543,0,0,0-2.489-.168c-1.02.031-2.039.256-3.057.242-4.255-.057-8.509-.272-12.762-.205a13.7,13.7,0,0,0-3.906,1.155,8.943,8.943,0,0,0-1.307.7c.277.514.452,1.339.849,1.483a9.854,9.854,0,0,0,3.32.627A30.381,30.381,0,0,0,9.6,44.906c3.931-.51,14.153-.844,15.275-1M37.153-5.8C37.1-6.815,37.114-7.833,37-8.835c-.223-1.944-1.594-3.746-2.668-3.172A6.38,6.38,0,0,0,31.273-8.5a45.9,45.9,0,0,0-.8,8.243c-.034.539.177,1.409.523,1.585A2.006,2.006,0,0,0,32.636,1C33.345.543,33.883-.2,34.58-.69A5.482,5.482,0,0,0,37.153-5.8M11.847,19.144c-.117,1.958.464,2.9,1.91,2.832.842-.039,2.2.6,2.259-1.259.065-2.179-.734-3.328-2.43-3.439-1.411-.092-1.769.747-1.739,1.866" transform="translate(10.64 20.33)" fill="#305156"/>
    </g>
    <g id="Groupe_72" data-name="Groupe 72" transform="translate(28.732 51.805)">
      <path id="Tracé_43" data-name="Tracé 43" d="M1.3,4.55C-.576,4.53-1.4,3.733-1.485,1.883c-.2-4.217,1.19-5.97,5.3-6.3,2.044-.164,4.1-.18,6.146-.344,1.173-.1,1.693.481,1.806,1.593a17.156,17.156,0,0,1,.287,4.333,3.846,3.846,0,0,1-1.84,2.4,9.638,9.638,0,0,1-3.532.676c-1.856.17-3.72.219-5.383.307M6.257-2.3c-1.108.094-2.37.168-3.625.319C1.748-1.879.91-1.639,1.113-.369,1.3.808,1.569,2.008,3.019,1.916a41.208,41.208,0,0,0,5.387-.666A1.879,1.879,0,0,0,9.469-.134c.192-2.529-1.8-1.731-3.212-2.169" transform="translate(1.503 4.768)" fill="#305156"/>
    </g>
  </g>
</svg>
