<svg xmlns="http://www.w3.org/2000/svg" xmlns:xlink="http://www.w3.org/1999/xlink" viewBox="0 0 74.142 72.391">
  <defs>
    <clipPath id="clip-path">
      <path id="Tracé_23" data-name="Tracé 23" d="M0,31.457H74.142V-40.934H0Z" transform="translate(0 40.934)" fill="none"/>
    </clipPath>
    <clipPath id="clip-path-2">
      <rect id="Rectangle_17" data-name="Rectangle 17" width="121.082" height="119.09" fill="none"/>
    </clipPath>
  </defs>
  <g id="Groupe_34" data-name="Groupe 34" transform="translate(0)">
    <g id="Groupe_33" data-name="Groupe 33" transform="translate(0 0)" clip-path="url(#clip-path)">
      <g id="Groupe_29" data-name="Groupe 29" transform="translate(-23.24 -26.749)" opacity="0.8">
        <g id="Groupe_28" data-name="Groupe 28">
          <g id="Groupe_27" data-name="Groupe 27" clip-path="url(#clip-path-2)">
            <g id="Groupe_26" data-name="Groupe 26" transform="translate(30.536 32.003)">
              <path id="Tracé_19" data-name="Tracé 19" d="M.272,9.566S15.087,59.3,41.78,54.341c26.781-4.975,32.006-17.29,14.771-44.87s-62.578-30.86-56.279.1" transform="translate(0.324 12.448)" fill="#eef4eb"/>
            </g>
          </g>
        </g>
      </g>
      <g id="Groupe_30" data-name="Groupe 30" transform="translate(0 -0.001)">
        <path id="Tracé_20" data-name="Tracé 20" d="M8.432,31.115C4.616,31.242,2.85,28.356.538,26.49-1.06,25.2-2.379,23.592-3.9,22.2a19.634,19.634,0,0,1-6.046-9.935A6.319,6.319,0,0,1-8.934,7.72C-7.069,5.014-4.077,3.575-.893,2.634A55.286,55.286,0,0,0,4.573,1.247,6.933,6.933,0,0,0,7.439-1.241c3.281-4.87,3.84-10.5,4.666-16.063.953-6.43,2.043-12.841,3.2-19.239.364-2.016,1.547-3.871,3.864-3.944a8.213,8.213,0,0,1,4.363,1.461c1.142.737,1.885.946,3.1.264,3.406-1.9,6.246-1.086,7.385,2.518,1.418,4.487,2.4,9.111,3.39,13.713,1.5,7.007,3.535,13.807,7.782,19.788a33.632,33.632,0,0,0,3.956,4.409A2.1,2.1,0,0,0,50.985,2c1.777-.764,3.031-.042,4.17,1.1,1.563,1.565,3.116,3.148,4.591,4.791,1.652,1.837,2,4.359.305,6.2-5.041,5.466-9.805,11.294-17.064,14.353-3.633,1.532-5.045,1.335-7.3-1.873-1.631-2.326-2.739-4.985-4.223-7.417a6.3,6.3,0,0,0-2.207-2.069c-4.824-2.725-6.022-2.594-9.873,1.04a2.2,2.2,0,0,0-.349,1.763c1.1,5.569.469,6.989-4.885,9.49a40.473,40.473,0,0,1-5.718,1.737M28.1-15.911c-.37.009-.738.018-1.107.025,0,2.255.022,4.51,0,6.763-.068,5.912-.1,11.824-.265,17.733-.064,2.324,4.2,5.871,6.583,5.268a2.317,2.317,0,0,0,.8-.435Q39.282,9.479,44.448,5.5c.863-.661,1.118-1.2.285-2.2a33.892,33.892,0,0,1-4.782-6.566,81.278,81.278,0,0,1-4.808-12.393c-1.668-5.758-2.137-11.416-3.645-17.22-.237-.914-.826-4.112-2.919-3.811-2.5.1-1.745,3.026-1.707,3.924.18,4.1-.305,8.36,2.5,12.038a12.021,12.021,0,0,1,1.985,4.5c.98,4.2,1.769,8.443,2.516,12.689.1.562-.412,1.71-.776,1.763a3.471,3.471,0,0,1-2.5-.529A4.136,4.136,0,0,1,29.466-4.7c-.388-2.361-.6-4.748-.885-7.125q-.243-2.043-.48-4.085m-4.65.52-1.122-.2a7.665,7.665,0,0,0-.8,1.687c-.375,1.834-.725,3.68-.921,5.537-.127,1.2-.506,2.3-1.839,2-.82-.191-2.088-1.408-1.994-1.993.749-4.66.712-9.654,5.19-13a3.344,3.344,0,0,0,1.313-2.49c-.4-3.551-.044-7.868-.743-11.378-.112-.564-2.257-3.634-3.024-1.556a8.077,8.077,0,0,0-.736,2.538c-.686,3.074-1.335,6.163-1.812,9.272C16.054-19.064,15.48-13.1,14.367-7.219A18.238,18.238,0,0,1,8.452,3.523a1.871,1.871,0,0,0-.4,1.8c2.31,3.1,4.747,6.108,7.158,9.138.822,1.035,1.622,1.275,2.959.477A9.666,9.666,0,0,0,23.1,6.952c.331-4.777.27-9.578.34-14.369.04-2.658.007-5.316.007-7.974M9.7,27.239c1.538-.753,3.09-1.388,4.5-2.237,1.747-1.05,1.76-2.6.657-4.068-3.232-4.281-6.4-8.623-9.882-12.712C2.017,4.751,1.257,4.828-2.648,7.191c-4.543,2.748-4.245,4.607-1.5,7.889a144.2,144.2,0,0,0,10.3,10.655c.782.759,2.167.944,3.544,1.5m30.945-1.882a14.754,14.754,0,0,0,3.495-1.551c3.186-2.617,6.364-5.267,9.292-8.14,5.126-5.03,3.653-3.832-.039-8.519-1.1-1.394-2.393-1.482-3.877-.569C44.706,9.529,39.434,11.8,36.747,17.314c-.8,1.634-1.01,2.587-.167,3.91a20.961,20.961,0,0,0,2.17,2.918,8.8,8.8,0,0,0,1.893,1.215" transform="translate(10.047 40.489)" fill="#305156"/>
      </g>
      <g id="Groupe_31" data-name="Groupe 31" transform="translate(6.294 49.421)">
        <path id="Tracé_21" data-name="Tracé 21" d="M3.488,2.527A1.836,1.836,0,0,1,.629,3.7,31.674,31.674,0,0,1-3.947-.419,2.078,2.078,0,0,1-3.82-2.437a2.716,2.716,0,0,1,1.968-.851c1.562.021,5.415,4.359,5.339,5.815" transform="translate(4.156 3.288)" fill="#305156"/>
      </g>
      <g id="Groupe_32" data-name="Groupe 32" transform="translate(55.821 49.457)">
        <path id="Tracé_22" data-name="Tracé 22" d="M.988,2.188C-1.229,2.172-1.578,1.058-.8.144A13.792,13.792,0,0,1,3.108-2.81c.379-.207,1.554.49,2.019,1.042A1.713,1.713,0,0,1,4.905-.026,41.42,41.42,0,0,1,.988,2.188" transform="translate(1.177 2.847)" fill="#305156"/>
      </g>
    </g>
  </g>
</svg>
