<svg xmlns="http://www.w3.org/2000/svg" xmlns:xlink="http://www.w3.org/1999/xlink" viewBox="0 0 53.503 76.114">
  <defs>
    <clipPath id="clip-path">
      <path id="Tracé_26" data-name="Tracé 26" d="M0,32.126H53.5V-43.988H0Z" transform="translate(0 43.988)" fill="none"/>
    </clipPath>
    <clipPath id="clip-path-2">
      <rect id="Rectangle_18" data-name="Rectangle 18" width="61.979" height="98.351" fill="none"/>
    </clipPath>
  </defs>
  <g id="Groupe_41" data-name="Groupe 41" transform="translate(0 0)">
    <g id="Groupe_40" data-name="Groupe 40" transform="translate(0 0)" clip-path="url(#clip-path)">
      <g id="Groupe_38" data-name="Groupe 38" transform="translate(-4.172 -14.188)" opacity="0.8">
        <g id="Groupe_37" data-name="Groupe 37">
          <g id="Groupe_36" data-name="Groupe 36" clip-path="url(#clip-path-2)">
            <g id="Groupe_35" data-name="Groupe 35" transform="translate(4.173 17.533)">
              <path id="Tracé_24" data-name="Tracé 24" d="M15.356,20.727s-36.707,33.52-38.276,2.106-2.5-50.138,16.635-51.19S28.9,6.179,15.356,20.727" transform="translate(23.674 28.38)" fill="#eaf4e7"/>
            </g>
          </g>
        </g>
      </g>
      <g id="Groupe_39" data-name="Groupe 39" transform="translate(6.966 0.001)">
        <path id="Tracé_25" data-name="Tracé 25" d="M9.984,6c4.57-2.744,10.324-6.506,15.529-1.943-1.886,9.5-8.242,11.458-15.065,12.047,0,2.945.106,7.541.106,10.853a35.663,35.663,0,0,0,3.8-1.853c5.6-3.7,11.751-1.988,14.843,4.184,3.652,7.3,1.822,14.114-2.593,19.958-3.543,4.686-8.141,8.5-12.348,12.619-1.616,1.58-3.464,2.893-5.178,4.364-2.7,2.313-3.408,2.279-5.914-.431-3.606-3.9-7.231-7.78-10.8-11.716a29.033,29.033,0,0,1-7.486-14.524c-1.37-7.622,2.593-13.831,9.966-15.314a15.09,15.09,0,0,1,10.37,1.3c.622.332,1.982,1.021,2.994,1.453,0-3.563-.094-7.33-.094-10.986-1.776-.337-4.047-.649-5.75-.791C-3.479,14.728-8.1,11.7-11.707,7.207c-2.9-3.615-2.971-8.333-2.768-12.858.028-.637,1.34-1.512,2.194-1.76C-4.962-9.522,1.067-7.479,5.8-1.153A35.189,35.189,0,0,1,9.984,6M9.326,33.565c-1.589-4.2-4.992-4.97-8.057-6.029-4.428-1.53-8.22-.088-11.445,3.049C-12.914,33.25-13.1,37.4-11.38,41.813c1.563,4.006,4.267,7.051,7.111,9.982,3.752,3.869,6.593,8,10.512,11.884,3.513-2.8,8.138-5.522,11.072-8.532,4.206-4.314,8.4-8.74,9.907-15.151,1.154-4.926-.361-9.323-4.621-11.976C19.352,26,17.458,26.01,12.878,29.843c-1.588,1.036-2.056,1.036-3.551,3.722m-2.478-22.7c-.48-1.883-2-1.407-3.207-1.587A7.7,7.7,0,0,1-2.417,5.1c-.345-.671.045-1.755.1-2.77,3.558.6,4.992,5.219,8.865,3.746C3.535-1.885-6.832-7.114-11.629-2.3-11.117,8.08.147,13.071,6.849,10.861m3.6,1.948c5.788.564,8.825-1.4,10.657-6.878-4.253-.886-9.468,2.48-10.657,6.878" transform="translate(15.393 8.214)" fill="#305156"/>
      </g>
    </g>
  </g>
</svg>
