<svg xmlns="http://www.w3.org/2000/svg" viewBox="0 0 244.193 35.11">
  <g id="Groupe_877" data-name="Groupe 877" transform="translate(-3.552 -30.222)">
    <path id="Tracé_1" data-name="Tracé 1" d="M19.739,38.723A37.264,37.264,0,0,1,33.442,56.6a47.644,47.644,0,0,1,1.075,5.462c-1.454-.582-3.034-.917-4.44-1.6a59.853,59.853,0,0,1-14.1-10.269A61.006,61.006,0,0,1,3.552,35.055c2.775-2.064,13.695-4.646,20.166-4.419,8.77.311,13.573,4.69,14.967,13.424a35.6,35.6,0,0,1-.727,13.889c-1.773-3.022-3.333-6.035-5.223-8.819-3.054-4.492-6.742-8.346-11.82-10.548a5.488,5.488,0,0,0-1.474-.392l-.465-.061C18.943,38.2,19.517,38.6,19.739,38.723Z" transform="translate(0 1.214)" fill="#2b555a"/>
    <path id="Tracé_2" data-name="Tracé 2" d="M47.712,30.253,33.46,45.641,47.829,65.29c-2.355,0-4.4.061-6.447-.044a2.32,2.32,0,0,1-1.406-.929c-3.3-4.25-6.569-8.536-9.849-12.806-.335-.44-.695-.86-1.151-1.43-1.624,1.737-3.216,3.369-4.7,5.086a2.631,2.631,0,0,0-.36,1.563c-.032,2.8-.012,5.591-.012,8.471H17.988V30.366H23.9v16.4l.424.25c.529-.606,1.042-1.232,1.592-1.814,4.432-4.694,8.851-9.4,13.335-14.038a3.207,3.207,0,0,1,1.979-.869C43.236,30.181,45.26,30.253,47.712,30.253Z" transform="translate(43.881 0.025)" fill="#1b2f37"/>
    <path id="Tracé_3" data-name="Tracé 3" d="M44.714,55.11V65.238h-5.9v-35c6.5.36,13.02-.743,19.411,1,4.876,1.329,7.6,4.642,7.938,9.663a21.54,21.54,0,0,1-.129,4.868c-.877,5.373-4.694,8.528-10.972,9.061-2.791.238-5.607.194-8.411.271C46.047,55.126,45.441,55.11,44.714,55.11Zm.053-5.522c2.973,0,5.87.089,8.758-.02,6.128-.226,7.041-4.771,6.423-9a4.785,4.785,0,0,0-3.422-4c-3.85-1.321-7.8-.788-11.76-.82Z" transform="translate(107.192 0)" fill="#192d35"/>
    <path id="Tracé_4" data-name="Tracé 4" d="M57.27,59.56H73.365v5.567H51.425V30.256H57.27Z" transform="translate(145.52 0.103)" fill="#1c3038"/>
    <path id="Tracé_5" data-name="Tracé 5" d="M36.677,65.144H30.844V30.257h5.833Z" transform="translate(82.96 0.106)" fill="#1b2f37"/>
    <path id="Tracé_6" data-name="Tracé 6" d="M68.386,65.139H62.557V30.256h5.829Z" transform="translate(179.358 0.103)" fill="#1b2f37"/>
  </g>
</svg>
