<svg xmlns="http://www.w3.org/2000/svg" viewBox="0 0 128.492 113.302">
  <g id="Groupe_440" data-name="Groupe 440" transform="matrix(-0.07, 0.998, -0.998, -0.07, 128.492, 8.473)">
    <path id="Tracé_380" data-name="Tracé 380" d="M0,121.457C1,120.3,9.615,105.493,13.99,98a9.2,9.2,0,0,0,1.2-5.852,11.986,11.986,0,0,0-2.511-5.784,50.076,50.076,0,0,1-5.466-9.3A40.077,40.077,0,0,1,3.846,64.328a36.573,36.573,0,0,1,.029-6.655c.3-3.148.893-6.267,1.3-9.407q.907-7.056,1.717-14.124c.335-2.923.811-5.837.314-8.806a39.1,39.1,0,0,1-.379-4.786,3.668,3.668,0,0,1,.4-1.214,3.867,3.867,0,0,1,1.094.618,8.661,8.661,0,0,1,1.349,1.912c.794,1.65,1.516,3.336,2.217,5.028a65.677,65.677,0,0,1,5.278,20.235c.5,6.809,1.885,13.463,3.011,20.164a24.557,24.557,0,0,1-.567,11.8c-.776,2.423-1.452,4.88-2.081,7.345a8.127,8.127,0,0,0-.327,4.45,3.96,3.96,0,0,0,.322.64,5.521,5.521,0,0,0,.712-.393,2.757,2.757,0,0,0,.369-.457c2.539-2.953,5.065-5.916,7.627-8.848a5.81,5.81,0,0,0,1.594-3.492c.3-4.212.656-8.418.933-12.631a9.841,9.841,0,0,0-.09-3.866,20.589,20.589,0,0,1-.057-14.786c2-5.285,4.423-10.417,6.754-15.572,2.9-6.409,5.882-12.782,8.856-19.158C46.06,8.383,46.331,3.937,48.189,0h.393c2.025,2.024,2,4.77,2.511,7.3a58.533,58.533,0,0,1,1.024,14.061,43.422,43.422,0,0,1-7.21,22.8c-2.439,3.636-5.276,7.006-7.973,10.465a32.838,32.838,0,0,0-7.118,20.978,10.553,10.553,0,0,0,.6,2.421,12.423,12.423,0,0,0,2.2-.949,8.585,8.585,0,0,0,3.861-6.743c.856-10.966,5.292-20.385,12.491-28.551A88.01,88.01,0,0,1,71.805,23.056a42.105,42.105,0,0,1,16.988-5.377c4.3-.391,8.613-.673,12.926-.9a9.04,9.04,0,0,1,2.865.557c.659.19.67.869.021,1.342-1.826,1.329-3.649,2.665-5.523,3.925A64.135,64.135,0,0,0,81.225,40.511C76.664,47.391,72.1,54.27,67.612,61.2c-3.64,5.617-8.3,10.1-14.489,12.692a29.966,29.966,0,0,1-8.41,2.137c-8.027.822-14.583,4.185-19.544,10.536A159.622,159.622,0,0,0,7.319,114.733c-.339.694-5.093,6.788-4.858,6.724" fill="#2c525a"/>
  </g>
</svg>
