<svg xmlns="http://www.w3.org/2000/svg" viewBox="0 0 131.535 135.677">
  <g id="hqKEyN.tif" transform="matrix(-0.174, 0.985, -0.985, -0.174, 144.419, 21.906)">
    <g id="Groupe_428" data-name="Groupe 428" transform="translate(0 0)">
      <path id="Tracé_345" data-name="Tracé 345" d="M115.548,0q-3.969,2.767-7.936,5.536c-4.464,3.125-8.886,6.3-13.4,9.358-2.039,1.379-4.517,1.152-6.872,1.06-5.6-.217-10.461-2.661-15.236-5.288a50.21,50.21,0,0,0-13.05-5.333A29.39,29.39,0,0,0,39.59,7.414c-4.208,1.965-8.34,4.076-12.537,6.06a5.845,5.845,0,0,0-2.687,2.93c-.462.918.177,1.723,1.278,1.655,3.981-.245,7.956-.7,11.942-.73A159.251,159.251,0,0,1,61.049,19.1c4.942.7,9.892,1.331,14.842,1.975,2.5.325,4.907.664,7.778,1.057-.735.528-1.235.91-1.759,1.261-2.815,1.883-5.628,3.77-8.456,5.635A16.278,16.278,0,0,1,66,31.375a43.29,43.29,0,0,0-17.282,5.26c-9.108,5.195-18.3,10.246-27.482,15.322-5.058,2.8-10.224,5.389-15.946,6.731-1.876.44-3.8.7-5.291,2.026,1.492,2.6,4.132,3.2,6.766,3.828,7.534,1.8,14.576.336,21.452-2.566Q39.4,57.259,50.68,52.765A30.405,30.405,0,0,1,55.4,51.728c-.328,1.176-.548,2.049-.817,2.907a49.8,49.8,0,0,0-2.4,16.141,38.2,38.2,0,0,0,2.7,12.329,63.233,63.233,0,0,1,3.657,20.378c.083,2.97.087,5.94.136,8.909a3.965,3.965,0,0,0,.129.677c2.825-.476,4.667-2.337,6.5-4.156,8.084-8.042,10.18-17.611,7.27-28.551-2.062-7.753-4.3-15.5-5.7-23.364-1.859-10.418,1.157-19.53,9.789-26.087C82.595,26.4,88.99,22.473,95.189,18.3a9.911,9.911,0,0,1,1.554-.666c.011,1.138.038,2.12.028,3.1-.036,3.474-.071,6.948-.135,10.42a24.305,24.305,0,0,1-1.4,7.638c-2.509,7.2-.144,14.1,6.222,18.719,2.817,2.043,5.82,3.848,8.567,5.974,1.907,1.476,3.622,3.191,5.383,4.847a.488.488,0,0,0,.828-.341l-.067-6.6a17.274,17.274,0,0,0-4.443-11.329c-2.606-2.912-5.2-5.831-7.73-8.806a22.68,22.68,0,0,1-3.266-5.25,21.51,21.51,0,0,1-1.376-12.83c1.012-5.846,3.521-10.911,8.476-14.492,2.482-1.794,5.164-3.325,7.757-4.976Z" transform="translate(0 13.083)" fill="#b85e4c"/>
      <path id="Tracé_346" data-name="Tracé 346" d="M41.229,2.895c-2.436-.262-4.877-.5-7.309-.79-5.584-.661-11.152-1.424-16.749-2C12.479-.372,8.2.815,4.064,2.331,2.842,2.78,1.636,3.258,0,3.884,2.126,4.8,3.967,5.532,5.723,6.369a60.769,60.769,0,0,1,6.311,3.242c5.461,3.46,11.576,3.887,18.054,2.847,2.775-.445,5.5-1.048,8.276-1.5a21.852,21.852,0,0,1,2.946-.091Z" transform="translate(74.216 0)" fill="#b85e4c"/>
    </g>
  </g>
</svg>
