<svg id="Groupe_87" data-name="Groupe 87" xmlns="http://www.w3.org/2000/svg" xmlns:xlink="http://www.w3.org/1999/xlink" viewBox="0 0 97.674 73.043">
  <defs>
    <clipPath id="clip-path">
      <path id="Tracé_47" data-name="Tracé 47" d="M0,36.667H97.674V-36.376H0Z" transform="translate(0 36.376)" fill="none"/>
    </clipPath>
    <clipPath id="clip-path-2">
      <rect id="Rectangle_29" data-name="Rectangle 29" width="143.874" height="139.842" fill="none"/>
    </clipPath>
  </defs>
  <g id="Groupe_86" data-name="Groupe 86" transform="translate(0 0)" clip-path="url(#clip-path)">
    <g id="Groupe_84" data-name="Groupe 84" transform="translate(-28.903 -37.75)" opacity="0.8">
      <g id="Groupe_83" data-name="Groupe 83">
        <g id="Groupe_82" data-name="Groupe 82" clip-path="url(#clip-path-2)">
          <g id="Groupe_81" data-name="Groupe 81" transform="translate(28.902 38.625)">
            <path id="Tracé_45" data-name="Tracé 45" d="M4.254,23.786S54.528,65.892,78.293,40.344c23.843-25.63,20.478-42.8-16.616-59.313S-24.055-4.638,4.254,23.786" transform="translate(4.22 23.597)" fill="#eef4eb"/>
          </g>
        </g>
      </g>
    </g>
    <g id="Groupe_85" data-name="Groupe 85" transform="translate(19.864 0)">
      <path id="Tracé_46" data-name="Tracé 46" d="M10.508,26.2c-1.861-.791-2.09.07-3.922-.7a4.415,4.415,0,0,1-2.96-3.763c.187-.849-1.46-2.084-2.251-3.167-.717-.984-1.39-2-2.092-2.994a24.026,24.026,0,0,0-1.62-2.217c-1.293-1.448-2.691-2.8-3.982-4.253-5.781-6.5-4.558-14.054-1.8-20.913,2.347-5.841,7.861-9.3,14.225-10.526a31.464,31.464,0,0,1,16.9,1.743,7.507,7.507,0,0,0,5.928-.259c3.924-1.767,7.881-3.747,12.04-4.661C53.811-28.325,66.343-18.4,64.9-4.289c-.255,2.5-1.986,4.9-3.251,7.229-1.624,2.994-3.472,5.867-5.215,8.8a3.056,3.056,0,0,0-.5,1.058c-.412,3.082-2.578,4.414-5.141,5.572-1,.454-1.667,1.657-2.5,2.5-1.038,1.06-1.916,2.478-3.179,3.074-1.833.863-2.721,4-3.885,5.424-2.6,5.1-4.09,3.337-7.12,5.721a6.581,6.581,0,0,1-3.689.044c-2.761-1.546-5.456-1.112-8.337-.339-3.245.869-4.195-.618-5.317-3.044-.789-1.064-2.436-.253-3.749-.775-2.233-.886-3.723-2.7-2.508-4.779m19.743-2.488c-2.381-2.329-4.7-4.735-6.843-7.285a2.611,2.611,0,0,1,.086-2.58c.5-.464,1.773-.253,2.659-.076.424.086.733.769,1.086,1.189,2.986,3.536,5.95,7.092,8.974,10.6a8.7,8.7,0,0,0,1.833,1.257c.187-.137,1-1.032,1.187-1.167a3.61,3.61,0,0,0-.341-2.618,23.8,23.8,0,0,0-7.853-9.414A9.859,9.859,0,0,1,28.711,11.3c-.94-1.355-.315-2.371,1.2-2.418a3.938,3.938,0,0,1,2.717,1.01c2.677,2.855,5.157,5.894,7.771,8.809a7.59,7.59,0,0,0,2.365,1.845c1.3.6,2.048-.108,1.594-1.468a17,17,0,0,0-2.038-4.4c-2.277-3.263-4.468-6.626-7.978-8.823A1.061,1.061,0,0,1,34,5.486,1.633,1.633,0,0,1,34.9,3.163,9.12,9.12,0,0,1,36.157,2.8c.347-.07.823.388,1.211.647,4.215,2.813,7.066,6.847,9.829,10.966.319.474,1.026,1.225,1.259,1.129,1.2-.49,2.655-.974,3.323-1.942a3.5,3.5,0,0,0-.363-3.191,35.541,35.541,0,0,0-4.032-3.926C46.162,5.289,42.241,1.287,40.835.143c-1.7-1.382-3.6-3.41-5.476-3.486-3.9-.159-8.207-.639-11.428,2.665a2.193,2.193,0,0,1-.857.514c-2.562.661-5.124,1.213-7.355-.88a4.943,4.943,0,0,1-.8-6.122,43.044,43.044,0,0,1,4.869-6.741,30.44,30.44,0,0,1,2.637-2.608c-5.771-2.3-11.12-3.229-16.638-1.882-4.235,1.032-8.181,3.05-10.084,7.11-2.986,6.369-3.2,12.721,1.9,18.44C-.038,9.793.655,9.606,2.589,7.46,5.815,3.874,11.53,5.195,13.08,8.637,14.57,11.944,28.4,28.026,29.108,29.458a5.972,5.972,0,0,0,2.514,2.4c.4.209,1.888-.574,1.972-1.064a5.375,5.375,0,0,0-.626-2.888,33.79,33.79,0,0,0-2.717-4.193m30.8-27.451c1.518-10.687-1.938-12.347-6.11-15.582-6.771-5.249-14.179-3.319-21.329.4-1.028.532-3.151,1.594-3.982,1.578-4.458,1.486-8.375,5.683-10.95,8.733A3.54,3.54,0,0,0,19.115-3.7c1.586,1.223,2.992.524,4.2-.637a10.315,10.315,0,0,1,8.422-2.753,8.264,8.264,0,0,0,8.06-3.888,4.242,4.242,0,0,1,1.645-1.635,9.4,9.4,0,0,1,2.618-.378c1.725.659.394,2.066.038,2.849a16.153,16.153,0,0,1-2.392,3.191c-.859,1.06-1.062,1.894.169,2.986,3.269,2.9,6.371,5.986,9.592,8.94,3.528,3.235,3.655,3.261,5.9-.89,1.586-2.932,3.034-4.4,3.681-7.831M20.665,22.309a1.8,1.8,0,0,0-1.849-2.39,8.9,8.9,0,0,0-4.7,2.09c-1.094.821-2.442,1.432-1.53,3.122s2.382,1.781,4.068,1.309a5.719,5.719,0,0,0,4.014-4.132M8.028,20.894c5.249,1.56,5.49-1.592,6.281-3.888.436-1.259.122-2.215-1.277-1.954a20.605,20.605,0,0,0-5.558,1.761c-.633.323-.972,1.853-.869,2.767.066.6,1.161,1.09,1.424,1.313M20.878,31.751c2.709-.06,4.476-1.771,4.5-3.584.018-1.508-.546-2.343-2.227-2.263-2.193.1-3.942,1.641-3.643,3.7.131.9,1.054,1.677,1.373,2.151M2.828,13.106c.187.3.886,1.747,1.086,1.681,1.689,1.781,9.134-1.44,5.739-4.048.026-.094-.147-.331-.261-.357-1.112-.247-2.315-.833-3.329-.6-1.38.313-3.239.544-3.235,3.327" transform="translate(10.425 25.989)" fill="#1f4f54"/>
    </g>
  </g>
</svg>
