<svg xmlns="http://www.w3.org/2000/svg" viewBox="0 0 121.415 19.26">
  <g id="_4_9_Stars_55x10px" data-name="4,9 Stars 55x10px" transform="translate(-0.004 -0.044)">
    <path id="Tracé_7" data-name="Tracé 7" d="M21.394,7.681l-6.612-.592L12.146,1.174a.535.535,0,0,0-.971,0L8.563,7.089l-6.612.592a.53.53,0,0,0-.451.359.518.518,0,0,0,.151.551l4.971,4.323L5.164,19.375a.519.519,0,0,0,.2.538.539.539,0,0,0,.583.031l5.71-3.436,5.71,3.344a.539.539,0,0,0,.534-.014.521.521,0,0,0,.252-.464L16.7,13l4.994-4.323a.518.518,0,0,0,.151-.551.53.53,0,0,0-.451-.359" transform="translate(-1.47 -0.77)" fill="#f2cc73"/>
    <path id="Tracé_8" data-name="Tracé 8" d="M32.291,7.681,25.7,7.089,23.043,1.174a.535.535,0,0,0-.971,0L19.483,7.089l-6.612.592a.53.53,0,0,0-.451.359.518.518,0,0,0,.151.551l4.994,4.323-1.457,6.461a.519.519,0,0,0,.2.538.539.539,0,0,0,.583.031L22.6,16.6l5.71,3.344a.539.539,0,0,0,.583-.031.519.519,0,0,0,.2-.538l-1.433-6.461,4.971-4.323a.518.518,0,0,0,.151-.551.53.53,0,0,0-.451-.359" transform="translate(12.856 -0.77)" fill="#f2cc73"/>
    <path id="Tracé_9" data-name="Tracé 9" d="M43.244,7.677l-6.612-.592-2.5-5.915a.559.559,0,0,0-.994,0L30.413,7.085,23.8,7.677a.53.53,0,0,0-.451.359.518.518,0,0,0,.151.551l4.994,4.323-1.457,6.461a.519.519,0,0,0,.2.538.539.539,0,0,0,.583.031L33.511,16.6l5.71,3.253a.539.539,0,0,0,.534-.014.521.521,0,0,0,.252-.464L38.551,13l4.994-4.323a.518.518,0,0,0,.151-.551.53.53,0,0,0-.451-.359" transform="translate(27.196 -0.766)" fill="#f2cc73"/>
    <path id="Tracé_10" data-name="Tracé 10" d="M54.174,7.681l-6.635-.592L44.926,1.174a.535.535,0,0,0-.971,0L41.343,7.089l-6.612.592a.53.53,0,0,0-.451.359.518.518,0,0,0,.151.551L39.4,12.914l-1.457,6.461a.519.519,0,0,0,.2.538.539.539,0,0,0,.583.031l5.71-3.344,5.71,3.344a.539.539,0,0,0,.583-.031.519.519,0,0,0,.2-.538L49.481,13l4.994-4.414a.518.518,0,0,0,.151-.551.53.53,0,0,0-.451-.359" transform="translate(41.535 -0.77)" fill="#f2cc73"/>
    <path id="Tracé_11" data-name="Tracé 11" d="M63.241,7.544l-4.624-.432L55.866,1.174a.535.535,0,0,0-.971,0L52.26,7.112,45.671,7.7a.53.53,0,0,0-.451.359.518.518,0,0,0,.151.551l4.971,4.323-1.457,6.439a.519.519,0,0,0,.2.538.539.539,0,0,0,.583.031l5.71-3.413,5.71,3.344a.539.539,0,0,0,.545-.019.521.521,0,0,0,.241-.481L60.421,13l2.821-2.73" transform="translate(55.887 -0.77)" fill="#f2cc73"/>
    <path id="Tracé_12" data-name="Tracé 12" d="M65.094,7.681l-6.612-.592L55.87,1.174a.535.535,0,0,0-.971,0L52.263,7.089l-6.612.592a.53.53,0,0,0-.451.359.518.518,0,0,0,.151.551l4.994,4.323-1.457,6.461a.519.519,0,0,0,.2.538.539.539,0,0,0,.583.031l5.71-3.344,5.71,3.344a.539.539,0,0,0,.583-.031.519.519,0,0,0,.2-.538l-1.8-6.257,4.994-4.3c.67-.432.485-1,0-1.047" transform="translate(55.861 -0.77)" fill="none" stroke="#f2cc73" stroke-width="0.1"/>
  </g>
</svg>
