<svg xmlns="http://www.w3.org/2000/svg" xmlns:xlink="http://www.w3.org/1999/xlink" viewBox="0 0 84.822 78.924">
  <defs>
    <clipPath id="clip-path">
      <path id="Tracé_32" data-name="Tracé 32" d="M0,38.3H84.822V-40.626H0Z" transform="translate(0 40.626)" fill="none"/>
    </clipPath>
    <clipPath id="clip-path-2">
      <rect id="Rectangle_19" data-name="Rectangle 19" width="129.014" height="101.45" fill="none"/>
    </clipPath>
  </defs>
  <g id="Groupe_51" data-name="Groupe 51" transform="translate(0)">
    <g id="Groupe_50" data-name="Groupe 50" transform="translate(0 0)" clip-path="url(#clip-path)">
      <g id="Groupe_45" data-name="Groupe 45" transform="translate(-25.109 -20.46)" opacity="0.8">
        <g id="Groupe_44" data-name="Groupe 44">
          <g id="Groupe_43" data-name="Groupe 43" clip-path="url(#clip-path-2)">
            <g id="Groupe_42" data-name="Groupe 42" transform="translate(25.109 26.285)">
              <path id="Tracé_27" data-name="Tracé 27" d="M27.066,1.275S77.477,45.283,37.772,54.139s-63.366,14.137-68.719-12.3,14.3-51.5,58.013-40.569" transform="translate(31.807 1.352)" fill="#eef4eb"/>
            </g>
          </g>
        </g>
      </g>
      <g id="Groupe_46" data-name="Groupe 46" transform="translate(28.698 32.841)">
        <path id="Tracé_28" data-name="Tracé 28" d="M14.677,3.124c.6.962.716,1.379.959,1.494,1.438.678,2.991,1.329,1.858,3.415-.85,1.566-4.07,1.962-5.433.828C9.947,7.1,9.3,3.68,11.33,1.91a23.233,23.233,0,0,1,8.094-4.942c4.324-1.305,8.352,2.1,9.06,6.772,1.1,7.211-2.549,11.555-9.954,12.653a42.948,42.948,0,0,1-6.539.313C3.932,16.655-4.127,16.6-12.185,16.4c-1.875-.047-5.066,1.177-5.062-1.488.006-3.167,2.987-1.912,4.787-1.925,9.234-.064,18.469.056,27.7-.06A19.208,19.208,0,0,0,21.1,11.7C23.358,10.928,24.514,8.935,25,6.57c.811-3.916-1.853-6.737-5.51-5.712a32.963,32.963,0,0,0-4.818,2.265" transform="translate(17.247 3.314)" fill="#305156"/>
      </g>
      <g id="Groupe_47" data-name="Groupe 47" transform="translate(2.467 23.735)">
        <path id="Tracé_29" data-name="Tracé 29" d="M.092,9.065c1.259-1.212,5.934-1.2,8.518-1.381,5.52-.381,11.076-.237,16.583-.723A93.525,93.525,0,0,0,38.057,4.769a12.109,12.109,0,0,0,4.816-2.708c1.666-1.426,1.573-4.554.157-6.2C41.172-6.3,37.874-6.8,36.325-4.82c-.642.822-.333,2.463-.5,4.146-.82.119-2.012.629-3.019.367C30.6-.88,30.041-2.687,31.125-4.789c2.464-4.765,8.348-6.255,13.136-3.326C48.028-5.811,49.6.433,46.648,4.278,44.893,6.562,43.023,7.45,40.282,8.4c-3.946,1.372-6.456,1.078-10.6,1.321-7.52.443-17.716,1.245-25.29,1.212-1.144-.006-3.252.441-3.587.107-.82-.767-1.168-1.385-.714-1.98" transform="translate(0.108 9.616)" fill="#305156"/>
      </g>
      <g id="Groupe_48" data-name="Groupe 48" transform="translate(19.752 61.528)">
        <path id="Tracé_30" data-name="Tracé 30" d="M17.589,3.561c.566,1.562.772,2.873,1.457,3.792.635.851,1.918,1.929,2.669,1.752a4.807,4.807,0,0,0,2.912-2.452,3.384,3.384,0,0,0-1.1-3.038c-2.478-1.36-5.1-2.893-7.8-3.266A104.307,104.307,0,0,0-13.939.269c-2.208.328-4.6.814-6.73-1.692C-20.754-3.4,4.81-4.786,16.917-2.846c4.3.69,9.059,1.034,11.25,5.48,1.7,3.441,1.316,6.071-1.66,8.33C21.094,15.074,18,14.295,15.127,9.43c-1.423-2.409-.766-3.746,2.462-5.869" transform="translate(20.669 3.778)" fill="#305156"/>
      </g>
      <g id="Groupe_49" data-name="Groupe 49" transform="translate(56.814 0.001)">
        <path id="Tracé_31" data-name="Tracé 31" d="M6.7,0c2.129,5,3.824,9.677,3.946,14.5.144,5.632-5.384,8.348-10.947,5.8-2.273,1.278-3.609,4.814-7.576,3.7,1.061-1.408,1.925-2.559,2.773-3.683C-8.006,13.228-7.273,8.917.515,5.113,2.544,4.122,4.141,2.16,6.7,0M.8,13.719c.528.453,1.037.7,1.268,1.121.8,1.443,1.607,2.862,3.495,1.879,1.864-.969,2.075-2.693,1.4-4.517-.6-1.607-1.42-3.122-2.33-5.082-2.688,2.757-8.2,1.4-7.533,7.392.028.245.42.443.742.76L.8,13.719" transform="translate(7.875)" fill="#305156"/>
      </g>
    </g>
  </g>
</svg>
